<?xml version="1.0" standalone="no"?>
<!DOCTYPE svg PUBLIC "-//W3C//DTD SVG 20010904//EN"
 "http://www.w3.org/TR/2001/REC-SVG-20010904/DTD/svg10.dtd">
<svg version="1.0" xmlns="http://www.w3.org/2000/svg"
 width="600.000000pt" height="431.000000pt" viewBox="0 0 600.000000 431.000000"
 preserveAspectRatio="xMidYMid meet">

<g transform="translate(0.000000,431.000000) scale(0.100000,-0.100000)"
fill="#000000" stroke="none">
<path d="M4120 3959 c-445 -48 -770 -200 -989 -462 -226 -272 -369 -618 -470
-1137 -106 -550 -117 -892 -37 -1161 38 -128 146 -296 238 -371 174 -140 410
-212 743 -225 l150 -6 207 57 c113 31 213 56 221 56 12 0 12 -13 -3 -96 -13
-69 -14 -97 -6 -99 24 -9 884 -175 902 -175 13 0 33 23 60 68 135 222 299 490
311 509 14 20 8 25 -146 130 -88 59 -161 111 -161 115 0 4 22 38 49 75 201
278 373 759 436 1214 36 268 36 613 0 775 -79 348 -274 564 -605 668 -163 52
-291 68 -565 71 -137 2 -288 -1 -335 -6z m540 -899 c0 -6 -56 -328 -125 -716
-77 -434 -133 -723 -145 -751 -66 -150 -137 -172 -557 -173 -194 0 -263 3
-263 12 0 36 244 1384 261 1441 32 109 102 162 246 187 72 12 583 12 583 0z"/>
<path d="M1600 3891 c0 -4 71 -15 158 -24 301 -31 1277 -137 1313 -142 32 -4
43 1 96 44 33 26 84 63 112 81 28 18 51 37 51 42 0 4 -389 8 -865 8 -476 -1
-865 -4 -865 -9z"/>
<path d="M863 3384 c6 -6 1810 -204 1857 -203 22 0 31 12 70 95 25 53 47 100
48 105 2 5 -407 9 -989 9 -546 0 -990 -3 -986 -6z"/>
<path d="M611 2876 c8 -8 1949 -210 1955 -203 4 4 63 192 64 205 0 1 -455 2
-1012 2 -556 0 -1009 -2 -1007 -4z"/>
<path d="M495 2372 c6 -5 444 -55 975 -111 531 -57 972 -103 980 -104 15 -2
31 58 46 170 l6 53 -1008 0 c-559 0 -1004 -4 -999 -8z"/>
<path d="M455 1859 c54 -15 1946 -212 1954 -203 5 5 11 55 14 112 l6 102
-1002 -1 c-580 -1 -989 -5 -972 -10z"/>
<path d="M501 1353 c23 -6 1953 -212 1957 -209 1 2 -4 34 -12 72 -7 38 -17 86
-20 107 l-7 37 -967 -1 c-532 -1 -960 -3 -951 -6z"/>
<path d="M1035 839 c25 -7 342 -40 1045 -109 47 -5 220 -23 384 -40 165 -17
309 -30 322 -28 19 3 7 17 -81 96 l-104 92 -798 -1 c-469 -1 -786 -5 -768 -10z"/>
</g>
</svg>
